<svg  role="img" viewBox="0 0 130 29" fill="none" xmlns="http://www.w3.org/2000/svg">
<path d="M123.6 20.6V15.6H131.2V13.2H123.6V8.30002H131.7V5.90002H120.7V23H131.8V20.6H123.6ZM145.4 23L140.5 16.5L145.2 10.5H142.2L139.1 14.6L136 10.5H132.9L137.6 16.6L132.8 22.9H135.9L139 18.5L142.3 22.9H145.4V23ZM153.5 10.3C151.4 10.3 149.9 11.5 149.5 12.9V10.6H146.6V27.8H149.5V20.8C150 22.3 151.4 23.4 153.5 23.4C156.8 23.4 159.1 20.7 159.1 16.8C159.1 12.9 156.8 10.3 153.5 10.3ZM152.8 21.1C150.4 21.1 149.2 19.3 149.2 16.8V16.5C149.3 14.2 150.6 12.5 152.8 12.5C155 12.5 156.3 14.4 156.3 16.7C156.3 19.2 155 21.1 152.8 21.1ZM161 5.90002V23H163.8V5.90002H161ZM172 23.3C175.7 23.3 178.4 20.7 178.4 16.8C178.4 12.9 175.7 10.2 172 10.2C168.3 10.2 165.6 12.9 165.6 16.8C165.6 20.7 168.3 23.3 172 23.3ZM172 21.1C169.9 21.1 168.4 19.3 168.4 16.8C168.4 14.3 170 12.5 172 12.5C174.1 12.5 175.6 14.3 175.6 16.8C175.6 19.3 174 21.1 172 21.1ZM186.5 13.1V10.3C184.5 10.4 183.3 11.5 182.9 13.2V10.6H180.2V23H183V17.1C182.9 14.7 184.2 13.2 186.5 13.1ZM199.1 17C199.1 13.5 197.3 10.2 193.1 10.2C189.5 10.2 186.8 12.9 186.8 16.7C186.8 20.6 189.3 23.3 193.1 23.3C196 23.3 198.2 21.8 198.9 19.3H196.1C195.6 20.5 194.5 21.1 193.1 21.1C191.2 21.1 189.7 19.8 189.5 17.5H199.1V17ZM189.6 15.5C189.9 13.6 191.2 12.4 193.1 12.4C195 12.4 196.1 13.6 196.3 15.5H189.6ZM207.3 13.1V10.3C205.3 10.4 204.1 11.5 203.7 13.2V10.6H201V23H203.8V17.1C203.6 14.7 204.9 13.2 207.3 13.1Z" fill="url(#paint0_linear_1027_1329)"/>
<path d="M37.1002 23.4C31.6002 23.4 28.2002 19.5 28.2002 14.3C28.2002 9.10001 31.7002 5.20001 37.1002 5.20001C41.5002 5.20001 44.1002 7.50001 45.2002 10.9H42.3002C41.4002 8.80001 39.8002 7.70001 37.2002 7.70001C33.5002 7.70001 31.2002 10.6 31.2002 14.3C31.2002 18 33.4002 20.9 37.2002 20.9C40.1002 20.9 41.6002 19.6 42.3002 17.7H45.2002C44.4002 21 41.5002 23.4 37.1002 23.4Z" fill="black"/>
<path d="M57.7002 23.1H54.8002C54.7002 22.5 54.7002 22 54.7002 21.4V21C54.3002 22.2 53.1002 23.4 50.7002 23.4C47.9002 23.4 46.2002 21.6 46.2002 19.6C46.2002 15.9 50.5002 15.8 52.3002 15.5C54.0002 15.2 54.7002 15 54.7002 13.9C54.7002 12.8 53.8002 12.1 52.2002 12.1C50.8002 12.1 49.8002 12.9 49.8002 14.1H47.0002C47.1002 12 48.8002 9.79999 52.2002 9.79999C56.4002 9.79999 57.5002 12.3 57.5002 15.1V20C57.4002 21.1 57.5002 22.4 57.7002 23.1ZM54.7002 15.9C54.4002 16.7 53.7002 17.3 51.6002 17.6C49.9002 17.9 49.0002 18.4 49.0002 19.6C49.0002 20.6 49.9002 21.4 51.4002 21.4C53.1002 21.4 54.8002 20.1 54.8002 17.3L54.7002 15.9Z" fill="black"/>
<path d="M63.9002 12.2C62.8002 12.2 61.8002 12.9 61.8002 13.8C61.8002 15 63.3002 15.4 65.4002 15.9C67.6002 16.4 69.3002 17.5 69.3002 19.5C69.3002 22 66.9002 23.5 64.1002 23.5C61.5002 23.5 59.1002 22.3 58.7002 19.2H61.5002C61.7002 20.6 62.6002 21.2 64.1002 21.2C65.3002 21.2 66.4002 20.7 66.4002 19.5C66.4002 18.2 65.2002 18 63.1002 17.5C61.1002 17 59.0002 16.1 59.0002 13.7C59.0002 11.4 61.3002 9.79999 63.9002 9.79999C66.6002 9.79999 68.7002 11.2 69.0002 14H66.3002C66.2002 12.8 65.1002 12.2 63.9002 12.2Z" fill="black"/>
<path d="M83.5998 16.7C83.5998 20.7 81.1998 23.5 77.7998 23.5C75.5998 23.5 74.1998 22.3 73.6998 20.8V28H70.7998V10.3H73.6998V12.6C74.1998 11.2 75.5998 9.90002 77.7998 9.90002C81.1998 10 83.5998 12.7 83.5998 16.7ZM80.6998 16.7C80.6998 14.3 79.2998 12.4 77.0998 12.4C74.8998 12.4 73.5998 14.1 73.4998 16.5V16.8C73.4998 19.3 74.6998 21.2 77.0998 21.2C79.3998 21.1 80.6998 19.1 80.6998 16.7Z" fill="black"/>
<path d="M96.9004 17.5H87.1004C87.3004 19.8 88.8004 21.2 90.8004 21.2C92.2004 21.2 93.4004 20.7 93.9004 19.4H96.7004C95.9004 22 93.8004 23.5 90.8004 23.5C87.0004 23.5 84.4004 20.8 84.4004 16.7C84.4004 12.8 87.1004 10 90.8004 10C95.1004 10 96.9004 13.4 96.9004 17V17.5ZM94.1004 15.4C93.9004 13.4 92.8004 12.2 90.8004 12.2C88.8004 12.2 87.5004 13.5 87.2004 15.4H94.1004Z" fill="black"/>
<path d="M101.3 17V23.1H98.5V10.3H101.3V13C101.8 11.3 103 10.1 105 10V13C102.6 13 101.3 14.5 101.3 17Z" fill="black"/>
<path d="M23.8 21.6C23.1 21.6 22.6 22.1 22.4 22.7L17.1 22.4C17.1 22.3 17.1 22.2 17.1 22.1C17.1 21.9 17.1 21.7 17 21.6L18.9 20.5C19.4 21.1 20.3 21.2 20.9 20.7C21.5 20.2 21.6 19.3 21.1 18.7C20.6 18.1 19.7 18 19.1 18.5C18.6 18.9 18.4 19.7 18.7 20.3L17 21.4C16.5 20.4 15.4 20 14.4 20.5C13.5 20.9 13.1 22 13.4 22.9L10 23.7C10 23.2 9.8 22.8 9.4 22.4L10 21.5C10.7 21.8 11.5 21.4 11.8 20.6C12.1 19.9 11.7 19.1 10.9 18.8C10.2 18.5 9.4 18.9 9.1 19.7C8.9 20.3 9.1 21 9.7 21.4L9.1 22.2C8.7 21.9 8.2 21.8 7.7 21.8L7.1 18.4C8.1 18.2 8.8 17.1 8.6 16.1C8.4 15 7.3 14.4 6.3 14.6C6.1 14.6 6 14.7 5.8 14.8L4.3 11.9C4.6 11.7 4.9 11.5 5.1 11.2L6.3 11.5C6.3 11.6 6.3 11.6 6.3 11.7C6.3 12.5 6.9 13.1 7.7 13.1C8.5 13.1 9.1 12.5 9.1 11.7C9.1 10.9 8.5 10.3 7.7 10.3C7.1 10.3 6.6 10.7 6.4 11.2L5.2 10.9C5.4 10.5 5.4 10.1 5.3 9.69999L8.8 8.09999C9.5 8.99999 10.7 9.09999 11.5 8.39999C12.3 7.79999 12.5 6.69999 11.9 5.79999L14.1 3.59999C14.4 3.79999 14.7 3.89999 15 3.89999V4.89999C14.2 4.99999 13.7 5.69999 13.8 6.39999C13.9 7.19999 14.6 7.69999 15.3 7.59999C16.1 7.49999 16.6 6.79999 16.5 6.09999C16.6 5.49999 16 4.99999 15.4 4.89999V3.89999C15.7 3.89999 15.9 3.79999 16.2 3.69999L18.6 6.49999C17.9 7.39999 18.1 8.59999 19 9.19999C19.9 9.89999 21.1 9.69999 21.7 8.79999C22.1 8.29999 22.2 7.59999 22 6.99999L22.8 6.59999C23.3 7.19999 24.2 7.29999 24.8 6.79999C25.4 6.29999 25.5 5.39999 25 4.79999C24.5 4.19999 23.6 4.09999 23 4.59999C22.5 4.99999 22.4 5.69999 22.7 6.29999L22 6.69999C21.5 5.69999 20.3 5.39999 19.4 5.89999C19.2 5.99999 19.1 6.09999 19 6.19999L16.6 3.49999C16.8 3.29999 17 3.09999 17.2 2.79999L19.3 3.09999C19.2 3.99999 20 4.39999 20.7 4.29999C21.4 4.19999 21.9 3.39999 21.8 2.59999C21.6 1.79999 20.9 1.39999 20.1 1.49999C19.5 1.69999 19 2.19999 19 2.89999L17.1 2.59999C17.4 1.59999 16.8 0.49999 15.8 0.19999C14.8 -0.10001 13.7 0.49999 13.4 1.49999C13.2 2.19999 13.4 2.99999 14 3.49999L11.8 5.59999C11.5 5.19999 11 4.99999 10.5 4.89999V3.39999C11.3 3.29999 11.8 2.59999 11.7 1.89999C11.6 1.09999 11 0.59999 10.2 0.69999C9.4 0.69999 8.9 1.39999 9 2.09999C9 2.79999 9.5 3.29999 10.2 3.39999V4.89999C9.1 4.89999 8.3 5.89999 8.4 6.99999C8.4 7.29999 8.5 7.59999 8.7 7.79999L5.3 9.39999C5.2 9.09999 5 8.79999 4.7 8.59999L6 6.19999C6.1 6.19999 6.2 6.29999 6.4 6.29999C7.2 6.29999 7.8 5.69999 7.8 4.89999C7.8 4.09999 7.2 3.49999 6.4 3.49999C5.6 3.49999 5 4.09999 5 4.79999C5 5.29999 5.3 5.79999 5.8 6.09999L4.5 8.39999C3.5 7.89999 2.3 8.19999 1.8 9.09999C1.3 9.99999 1.6 11.2 2.5 11.8C3 12.1 3.5 12.1 4.1 12L5.6 15C5.2 15.3 4.9 15.7 4.9 16.2L3.8 15.9C3.8 15.8 3.8 15.7 3.8 15.6C3.8 14.8 3.2 14.2 2.4 14.2C1.6 14.2 1 14.8 1 15.6C1 16.4 1.6 17 2.4 17C2.9 17 3.4 16.7 3.6 16.2L4.8 16.5V16.6C4.8 17.3 5.1 17.9 5.7 18.2L4.9 19.2C4.3 18.7 3.4 18.7 2.9 19.3C2.4 19.9 2.4 20.8 3 21.3C3.6 21.8 4.5 21.8 5 21.2C5.4 20.7 5.5 20 5.1 19.4L6 18.3C6.2 18.4 6.5 18.5 6.8 18.5H6.9L7.5 21.9C6.5 22.2 5.9 23.3 6.2 24.3C6.5 25.3 7.6 25.9 8.6 25.6C9 25.5 9.3 25.2 9.6 24.9L12.4 26.2C12.4 26.3 12.4 26.4 12.4 26.5C12.4 27.3 13 27.9 13.8 27.9C14.6 27.9 15.2 27.3 15.2 26.5C15.2 25.7 14.6 25.1 13.8 25.1C13.3 25.1 12.8 25.4 12.5 25.9L9.8 24.7C9.9 24.5 10 24.3 10 24L13.6 23.1C14.1 24.1 15.3 24.4 16.2 23.9C16.3 23.8 16.4 23.8 16.5 23.7L17.8 24.9C17.5 25.6 17.8 26.4 18.5 26.8C19.2 27.1 20 26.8 20.4 26.1C20.7 25.4 20.4 24.6 19.7 24.2C19.1 23.9 18.4 24.1 18 24.6L16.7 23.5C16.9 23.3 17 23 17.1 22.8L22.4 23.1C22.4 23.9 23 24.5 23.8 24.5C24.6 24.5 25.2 23.9 25.2 23.1C25.2 22.3 24.6 21.6 23.8 21.6Z" fill="#FF0012"/>

</svg>
