<svg width="14" height="8" viewBox="0 0 14 8"  xmlns="http://www.w3.org/2000/svg">
<path d="M7 7.89258C7.14128 7.88802 7.27116 7.86068 7.38965 7.81055C7.5127 7.75586 7.62891 7.67383 7.73828 7.56445L12.8721 2.29395C13.0498 2.12077 13.1387 1.90885 13.1387 1.6582C13.1387 1.48958 13.0977 1.33464 13.0156 1.19336C12.9336 1.05208 12.8219 0.94043 12.6807 0.858398C12.5439 0.776367 12.3913 0.735352 12.2227 0.735352C11.9674 0.735352 11.7441 0.828776 11.5527 1.01562L6.69238 6.01953H7.31445L2.44043 1.01562C2.24902 0.828776 2.02572 0.735352 1.77051 0.735352C1.60189 0.735352 1.44694 0.776367 1.30566 0.858398C1.16895 0.94043 1.05957 1.05208 0.977539 1.19336C0.895508 1.33464 0.854492 1.48958 0.854492 1.6582C0.854492 1.78581 0.875 1.90202 0.916016 2.00684C0.961589 2.11165 1.02767 2.20964 1.11426 2.30078L6.26172 7.56445C6.48503 7.7832 6.73112 7.89258 7 7.89258Z" />
</svg>
