<svg width="14" height="8" viewBox="0 0 14 8"  xmlns="http://www.w3.org/2000/svg">
<path d="M1.11426 5.8623C1.02767 5.94434 0.961589 6.04004 0.916016 6.14941C0.875 6.25879 0.854492 6.375 0.854492 6.49805C0.854492 6.67122 0.895508 6.82845 0.977539 6.96973C1.05957 7.10645 1.16895 7.21582 1.30566 7.29785C1.44694 7.37988 1.60189 7.4209 1.77051 7.4209C2.03483 7.4209 2.25814 7.32747 2.44043 7.14062L7.31445 2.14355H6.69238L11.5527 7.14062C11.735 7.32747 11.9583 7.4209 12.2227 7.4209C12.3913 7.4209 12.5439 7.37988 12.6807 7.29785C12.8219 7.21582 12.9336 7.10645 13.0156 6.96973C13.0977 6.82845 13.1387 6.67122 13.1387 6.49805C13.1387 6.24284 13.0498 6.03092 12.8721 5.8623L7.73828 0.598633C7.62891 0.489258 7.5127 0.407227 7.38965 0.352539C7.27116 0.293294 7.14128 0.263672 7 0.263672C6.72201 0.263672 6.47591 0.375326 6.26172 0.598633L1.11426 5.8623Z"/>
</svg>
