<svg width="28" height="24"  viewBox="0 0 16 9" xmlns="http://www.w3.org/2000/svg">
<path d="M8.13281 10.5798C8.67578 10.5798 9.19727 10.5349 9.69727 10.4451C10.1973 10.3552 10.6738 10.2322 11.127 10.0759L10.3594 9.30835C10.0117 9.41382 9.65234 9.4978 9.28125 9.5603C8.91016 9.6228 8.52734 9.65405 8.13281 9.65405C7.48828 9.65405 6.86914 9.57397 6.27539 9.41382C5.68164 9.25366 5.125 9.04272 4.60547 8.78101C4.08594 8.51538 3.61523 8.22632 3.19336 7.91382C2.77148 7.60132 2.40625 7.29272 2.09766 6.98804C1.79297 6.67944 1.55859 6.39819 1.39453 6.14429C1.23047 5.89038 1.14844 5.69507 1.14844 5.55835C1.14844 5.45679 1.21289 5.30249 1.3418 5.09546C1.47461 4.88843 1.66211 4.6521 1.9043 4.38647C2.15039 4.12085 2.44531 3.84546 2.78906 3.5603C3.13672 3.27515 3.52734 3.00366 3.96094 2.74585L3.23438 2.01929C2.74609 2.32007 2.30859 2.64038 1.92188 2.98022C1.53906 3.31616 1.21289 3.64819 0.943359 3.97632C0.677734 4.30444 0.474609 4.60718 0.333984 4.88452C0.193359 5.15796 0.123047 5.38257 0.123047 5.55835C0.123047 5.75757 0.210938 6.01929 0.386719 6.34351C0.566406 6.66382 0.824219 7.01343 1.16016 7.39233C1.49609 7.76733 1.90039 8.14233 2.37305 8.51733C2.8457 8.89233 3.37891 9.23608 3.97266 9.54858C4.57031 9.85718 5.2168 10.1052 5.91211 10.2927C6.61133 10.4841 7.35156 10.5798 8.13281 10.5798ZM8.13281 0.536865C7.62109 0.536865 7.13281 0.577881 6.66797 0.659912C6.20703 0.741943 5.75977 0.855225 5.32617 0.999756L6.09961 1.76733C6.42383 1.67358 6.75195 1.59937 7.08398 1.54468C7.41992 1.48999 7.76953 1.46265 8.13281 1.46265C8.77344 1.46265 9.39062 1.54663 9.98438 1.7146C10.5781 1.87866 11.1348 2.09741 11.6543 2.37085C12.1738 2.64038 12.6445 2.93335 13.0664 3.24976C13.4883 3.56616 13.8516 3.88062 14.1562 4.19312C14.4609 4.50171 14.6953 4.7771 14.8594 5.01929C15.0273 5.26147 15.1113 5.44116 15.1113 5.55835C15.1113 5.67944 15.0488 5.84351 14.9238 6.05054C14.8027 6.25366 14.625 6.48413 14.3906 6.74194C14.1602 6.99585 13.8828 7.25757 13.5586 7.5271C13.2344 7.79663 12.8691 8.0564 12.4629 8.3064L13.1836 9.0271C13.6445 8.72632 14.0566 8.40991 14.4199 8.07788C14.7871 7.74585 15.0977 7.42163 15.3516 7.10522C15.6055 6.78491 15.7988 6.48999 15.9316 6.22046C16.0684 5.95093 16.1367 5.73022 16.1367 5.55835C16.1367 5.35913 16.0488 5.09937 15.873 4.77905C15.6973 4.45483 15.4434 4.10522 15.1113 3.73022C14.7793 3.35132 14.377 2.97437 13.9043 2.59937C13.4355 2.22437 12.9043 1.88257 12.3105 1.57397C11.7168 1.26147 11.0684 1.01147 10.3652 0.823975C9.66602 0.632568 8.92188 0.536865 8.13281 0.536865ZM8.13281 8.8396C8.39062 8.8396 8.63867 8.8103 8.87695 8.75171C9.11914 8.68921 9.34961 8.60522 9.56836 8.49976L5.17383 4.10522C5.06445 4.32397 4.98047 4.5564 4.92188 4.80249C4.86328 5.04468 4.83398 5.29663 4.83398 5.55835C4.83789 6.00366 4.92383 6.42554 5.0918 6.82397C5.25977 7.21851 5.49414 7.56812 5.79492 7.8728C6.0957 8.17358 6.44531 8.40991 6.84375 8.58179C7.24219 8.75366 7.67188 8.8396 8.13281 8.8396ZM11.1387 6.84155C11.2285 6.64624 11.2969 6.44116 11.3438 6.22632C11.3945 6.00757 11.4199 5.78491 11.4199 5.55835C11.4199 5.10132 11.334 4.67358 11.1621 4.27515C10.9941 3.87671 10.7598 3.52905 10.459 3.23218C10.1582 2.9314 9.80859 2.69702 9.41016 2.52905C9.01172 2.36108 8.58594 2.2771 8.13281 2.2771C7.90234 2.2771 7.67773 2.30054 7.45898 2.34741C7.24414 2.39429 7.03906 2.46069 6.84375 2.54663L11.1387 6.84155ZM12.6914 10.6326C12.7812 10.7224 12.8867 10.7693 13.0078 10.7732C13.1328 10.7771 13.2402 10.7302 13.3301 10.6326C13.4277 10.5349 13.4746 10.4255 13.4707 10.3044C13.4668 10.1873 13.4199 10.0837 13.3301 9.9939L3.5332 0.202881C3.44727 0.116943 3.33984 0.0739746 3.21094 0.0739746C3.08594 0.0700684 2.97852 0.113037 2.88867 0.202881C2.80273 0.288818 2.75977 0.39624 2.75977 0.525146C2.75977 0.650146 2.80273 0.755615 2.88867 0.841553L12.6914 10.6326Z" />
</svg>
