<svg width="28" height="24" viewBox="0 0 29 15"  xmlns="http://www.w3.org/2000/svg">
<path d="M14.4102 17.416C15.7448 17.416 17.0013 17.2565 18.1797 16.9375C19.3646 16.6185 20.4551 16.1986 21.4512 15.6777C22.4473 15.1504 23.3359 14.571 24.1172 13.9395C24.9049 13.3079 25.5755 12.6764 26.1289 12.0449C26.6823 11.4069 27.1022 10.8177 27.3887 10.2773C27.6816 9.73047 27.8281 9.29102 27.8281 8.95898C27.8281 8.62695 27.6816 8.19076 27.3887 7.65039C27.1022 7.11003 26.6823 6.52409 26.1289 5.89258C25.5755 5.25456 24.9049 4.61979 24.1172 3.98828C23.3359 3.35677 22.444 2.7806 21.4414 2.25977C20.4453 1.73242 19.3581 1.30924 18.1797 0.990234C17.0013 0.671224 15.7448 0.511719 14.4102 0.511719C13.1016 0.511719 11.8581 0.671224 10.6797 0.990234C9.50781 1.30924 8.42383 1.73242 7.42773 2.25977C6.43164 2.7806 5.53646 3.35677 4.74219 3.98828C3.94792 4.61979 3.27083 5.25456 2.71094 5.89258C2.15755 6.52409 1.73112 7.11003 1.43164 7.65039C1.13867 8.19076 0.992188 8.62695 0.992188 8.95898C0.992188 9.29102 1.13867 9.73047 1.43164 10.2773C1.73112 10.8177 2.15755 11.4069 2.71094 12.0449C3.27083 12.6764 3.94466 13.3079 4.73242 13.9395C5.52669 14.571 6.42188 15.1504 7.41797 15.6777C8.41406 16.1986 9.49805 16.6185 10.6699 16.9375C11.8483 17.2565 13.0951 17.416 14.4102 17.416ZM14.4102 15.5312C13.3685 15.5312 12.3691 15.4043 11.4121 15.1504C10.4616 14.8965 9.56966 14.5579 8.73633 14.1348C7.90299 13.7116 7.14779 13.2526 6.4707 12.7578C5.80013 12.2565 5.2207 11.7617 4.73242 11.2734C4.24414 10.7786 3.86654 10.3262 3.59961 9.91602C3.33919 9.50586 3.20898 9.18685 3.20898 8.95898C3.20898 8.77018 3.33919 8.48047 3.59961 8.08984C3.86654 7.69922 4.24414 7.25651 4.73242 6.76172C5.2207 6.26042 5.80013 5.75586 6.4707 5.24805C7.14779 4.74023 7.90299 4.27148 8.73633 3.8418C9.56966 3.4056 10.4616 3.05404 11.4121 2.78711C12.3691 2.52018 13.3685 2.38672 14.4102 2.38672C15.4518 2.38672 16.4479 2.52018 17.3984 2.78711C18.349 3.05404 19.2409 3.4056 20.0742 3.8418C20.9076 4.27148 21.6628 4.74023 22.3398 5.24805C23.0169 5.75586 23.5996 6.26042 24.0879 6.76172C24.5762 7.25651 24.9505 7.69922 25.2109 8.08984C25.4779 8.48047 25.6113 8.77018 25.6113 8.95898C25.6113 9.18685 25.4779 9.50586 25.2109 9.91602C24.9505 10.3262 24.5762 10.7786 24.0879 11.2734C23.5996 11.7617 23.0169 12.2565 22.3398 12.7578C21.6628 13.2526 20.9076 13.7116 20.0742 14.1348C19.2409 14.5579 18.349 14.8965 17.3984 15.1504C16.4479 15.4043 15.4518 15.5312 14.4102 15.5312ZM14.4199 14.2227C15.1426 14.2227 15.8229 14.0859 16.4609 13.8125C17.099 13.5326 17.6589 13.1517 18.1406 12.6699C18.6224 12.1816 19 11.6217 19.2734 10.9902C19.5469 10.3522 19.6836 9.67513 19.6836 8.95898C19.6836 8.22982 19.5469 7.54622 19.2734 6.9082C19 6.27018 18.6224 5.71354 18.1406 5.23828C17.6589 4.75651 17.099 4.38216 16.4609 4.11523C15.8229 3.8418 15.1426 3.70508 14.4199 3.70508C13.6777 3.70508 12.9876 3.8418 12.3496 4.11523C11.7116 4.38216 11.1517 4.75651 10.6699 5.23828C10.1882 5.71354 9.81055 6.27018 9.53711 6.9082C9.27018 7.54622 9.13672 8.22982 9.13672 8.95898C9.13672 9.67513 9.27344 10.3522 9.54688 10.9902C9.82031 11.6217 10.1979 12.1816 10.6797 12.6699C11.1615 13.1517 11.7181 13.5326 12.3496 13.8125C12.9876 14.0859 13.6777 14.2227 14.4199 14.2227ZM14.4102 10.668C13.9349 10.668 13.5312 10.4987 13.1992 10.1602C12.8672 9.82161 12.7012 9.42122 12.7012 8.95898C12.7012 8.49023 12.8672 8.08984 13.1992 7.75781C13.5312 7.42578 13.9349 7.25977 14.4102 7.25977C14.8789 7.25977 15.2793 7.42578 15.6113 7.75781C15.9499 8.08984 16.1191 8.49023 16.1191 8.95898C16.1191 9.42122 15.9499 9.82161 15.6113 10.1602C15.2793 10.4987 14.8789 10.668 14.4102 10.668Z"/>
</svg>
